HIERARCHY
ROOT SimulationBone
{
	OFFSET 0.000000 0.000000 0.000000
	CHANNELS 6 Xposition Yposition Zposition Zrotation Yrotation Xrotation 
	JOINT Hips
	{
		OFFSET 0.000000 0.000000 0.000000
		CHANNELS 6 Xposition Yposition Zposition Zrotation Yrotation Xrotation 
		JOINT LeftUpLeg
		{
			OFFSET 0.103462 1.857831 10.548496
			CHANNELS 3 Zrotation Yrotation Xrotation
			JOINT LeftLeg
			{
				OFFSET 43.500000 -0.000038 -0.000010
				CHANNELS 3 Zrotation Yrotation Xrotation
				JOINT LeftFoot
				{
					OFFSET 42.372192 0.000011 0.000010
					CHANNELS 3 Zrotation Yrotation Xrotation
					JOINT LeftToe
					{
						OFFSET 17.299999 0.000001 -0.000001
						CHANNELS 3 Zrotation Yrotation Xrotation
						End Site
						{
							OFFSET 0.000000 0.000000 0.000000
						}
					}
				}
			}
		}
		JOINT RightUpLeg
		{
			OFFSET 0.103456 1.857825 -10.548502
			CHANNELS 3 Zrotation Yrotation Xrotation
			JOINT RightLeg
			{
				OFFSET 43.500038 -0.000023 0.000011
				CHANNELS 3 Zrotation Yrotation Xrotation
				JOINT RightFoot
				{
					OFFSET 42.372261 -0.000008 0.000011
					CHANNELS 3 Zrotation Yrotation Xrotation
					JOINT RightToe
					{
						OFFSET 17.299994 -0.000004 0.000002
						CHANNELS 3 Zrotation Yrotation Xrotation
						End Site
						{
							OFFSET 0.000000 0.000000 0.000000
						}
					}
				}
			}
		}
		JOINT Spine
		{
			OFFSET 6.901965 -2.603729 -0.000002
			CHANNELS 3 Zrotation Yrotation Xrotation
			JOINT Spine1
			{
				OFFSET 12.588101 -0.000004 0.000003
				CHANNELS 3 Zrotation Yrotation Xrotation
				JOINT Spine2
				{
					OFFSET 12.343205 0.000006 0.000001
					CHANNELS 3 Zrotation Yrotation Xrotation
					JOINT Neck
					{
						OFFSET 25.832897 -0.000008 -0.000001
						CHANNELS 3 Zrotation Yrotation Xrotation
						JOINT Head
						{
							OFFSET 11.766601 0.000009 -0.000008
							CHANNELS 3 Zrotation Yrotation Xrotation
							End Site
							{
								OFFSET 0.000000 0.000000 0.000000
							}
						}
					}
					JOINT LeftShoulder
					{
						OFFSET 19.745893 -1.480370 6.000097
						CHANNELS 3 Zrotation Yrotation Xrotation
						JOINT LeftArm
						{
							OFFSET 11.284136 -0.000006 -0.000021
							CHANNELS 3 Zrotation Yrotation Xrotation
							JOINT LeftForeArm
							{
								OFFSET 33.000042 0.000005 0.000030
								CHANNELS 3 Zrotation Yrotation Xrotation
								JOINT LeftHand
								{
									OFFSET 25.200008 0.000013 0.000010
									CHANNELS 3 Zrotation Yrotation Xrotation
									End Site
									{
										OFFSET 0.000000 0.000000 0.000000
									}
								}
							}
						}
					}
					JOINT RightShoulder
					{
						OFFSET 19.746088 -1.480379 -6.000076
						CHANNELS 3 Zrotation Yrotation Xrotation
						JOINT RightArm
						{
							OFFSET 11.284133 -0.000016 -0.000013
							CHANNELS 3 Zrotation Yrotation Xrotation
							JOINT RightForeArm
							{
								OFFSET 33.000095 0.000019 0.000001
								CHANNELS 3 Zrotation Yrotation Xrotation
								JOINT RightHand
								{
									OFFSET 25.199785 0.000138 0.000422
									CHANNELS 3 Zrotation Yrotation Xrotation
									End Site
									{
										OFFSET 0.000000 0.000000 0.000000
									}
								}
							}
						}
					}
				}
			}
		}
	}
}
MOTION
Frames: 6
Frame Time: 0.033333
32.601947 0.000000 -361.596396 180.000000 29.106011 180.000000 0.841682 87.939682 1.274063 93.968897 2.815794 -178.247563 -174.214903 6.544405 -176.276391 -31.708795 -1.809732 -6.823470 84.261681 5.631728 4.334133 21.454551 0.003091 0.000000 148.270348 -4.443299 178.994437 -69.435703 -1.150000 9.768793 70.248632 -6.260516 2.381155 21.454557 -0.003113 -0.000017 7.382089 0.218538 -1.891394 4.742933 0.513732 -3.772326 4.425559 0.491098 -3.775353 -11.820438 -2.251862 -6.293566 -16.028972 8.999204 -10.170258 -11.286093 -77.155586 -170.891770 -24.544358 -11.209509 -29.129370 -48.363579 -18.619331 1.938907 13.816645 -6.803538 -45.813600 -66.918416 75.598310 116.023303 -21.350478 8.900870 36.017322 -40.851201 18.802510 -1.756600 21.570202 14.395389 55.800586 
27.751850 0.000000 -363.101826 180.000000 27.316364 180.000000 1.137636 89.111801 1.642903 92.639556 4.196786 -178.598595 -171.999504 4.526509 -177.836556 -30.033431 -1.473057 -4.775387 77.298740 4.278273 3.219195 21.454550 0.003090 -0.000001 148.459831 -5.341198 -178.913896 -55.931791 -1.476196 6.556634 71.031611 -3.480987 3.846884 21.454557 -0.003103 -0.000018 6.989859 0.539131 -1.983776 3.947390 1.144763 -3.948408 3.630032 1.121058 -3.955231 -14.382242 -0.332827 -5.315492 -13.288637 7.392128 -7.838303 -10.708126 -80.050466 -171.391740 -23.730014 -9.864731 -30.276104 -59.930730 -16.947033 2.228630 12.289278 -7.918521 -44.454986 -79.306795 77.248114 103.532547 -19.873880 8.478996 36.298928 -58.308901 18.619758 -2.314556 19.288413 16.311197 54.236954 
22.850979 0.000000 -364.571229 180.000000 25.386606 180.000000 1.427030 89.626472 1.839274 91.666493 4.805098 -179.546533 -171.789079 3.721803 -179.093898 -33.256751 -0.397409 -2.525708 72.585411 1.732365 -0.344675 21.454545 0.003090 -0.000000 150.192595 -6.238008 179.418319 -42.945129 -1.149850 2.028196 73.179828 -0.118800 4.401177 21.454557 -0.003109 -0.000016 6.694710 0.707611 -2.054334 3.350599 1.473432 -4.087959 3.033262 1.448875 -4.096759 -16.514530 1.007449 -4.030532 -10.478937 5.826695 -5.427727 -17.619323 -83.374719 -164.470231 -22.712314 -7.768428 -33.771505 -74.265787 -12.335639 2.483874 9.267364 -10.075503 -39.446989 -91.429349 78.342727 91.293791 -18.286180 8.139343 38.352048 -75.508329 13.599581 -2.661959 10.772656 15.684274 42.336729 
17.878832 0.000000 -365.996907 180.000000 23.323941 180.000000 1.759054 89.080887 2.008881 91.925339 5.188156 179.274772 -172.664874 3.556200 -177.281931 -41.488471 -0.089568 -1.431732 70.964860 -0.844149 -5.719607 21.454557 0.003093 0.000000 153.028749 -7.236100 173.950629 -34.810520 -0.145204 -0.469472 76.074551 1.476737 4.162528 21.454560 -0.003109 -0.000016 6.657942 0.790578 -1.971336 3.275425 1.635686 -3.920252 2.957982 1.612136 -3.930036 -15.310670 2.072161 -2.739254 -11.103388 4.145918 -3.353878 -12.326478 -86.574574 -169.613528 -20.241511 -4.955576 -39.898195 -88.081805 -3.912464 2.493958 4.807056 -12.351284 -33.744635 -96.312771 78.969821 86.325094 -17.473697 7.211928 42.807589 -89.798580 4.020916 -2.618997 2.667870 12.314759 30.137957 
12.840717 0.000000 -367.395957 180.000000 21.158115 180.000000 2.103638 87.632080 2.256149 93.326883 5.686833 178.415327 -174.102915 3.026703 -174.625821 -52.191098 -0.782659 0.504267 68.077137 -3.154039 -7.748934 21.454557 0.003091 0.000000 156.565681 -7.930295 169.009001 -32.441025 1.586467 0.644797 73.658468 0.124263 2.186544 21.454557 -0.003108 -0.000018 6.911702 0.825056 -1.768028 3.784858 1.706713 -3.508845 3.467251 1.685642 -3.519063 -13.069727 3.231866 -1.612966 -12.075556 3.208598 -1.686843 -7.536368 -87.426333 -174.338666 -19.714627 -1.654323 -40.909152 -100.393501 0.932145 2.702466 2.668029 -14.837987 -34.677430 -95.838605 79.626899 86.747173 -17.498800 6.610770 41.126328 -102.443808 -1.535674 -2.796897 -0.644552 13.090911 29.917793 
7.730798 0.000000 -368.783395 180.000000 18.892121 180.000000 2.218829 85.595253 2.568422 95.281478 7.050198 178.306162 -176.218771 1.537094 -173.441849 -64.083560 -0.152649 2.324408 68.951395 -3.791636 -5.830628 21.454560 0.003092 0.000001 158.295795 -8.439408 172.325727 -40.288045 1.662842 0.489139 81.494033 -0.049080 1.510076 21.454558 -0.003110 -0.000018 7.296871 1.043352 -1.456843 4.554847 2.142660 -2.872342 4.236941 2.125417 -2.885216 -9.596800 2.976577 -0.482391 -13.697164 3.522102 -0.880505 -1.803967 -88.179409 179.981577 -20.629659 0.782989 -38.143355 -111.370012 2.468993 3.076565 1.738306 -14.077596 -36.589685 -94.348142 80.458078 88.177810 -18.665777 7.760668 36.238901 -113.235008 -3.825612 -3.111706 -0.803346 15.140882 34.186094 
